<mxfile host="app.diagrams.net" modified="2024-07-17T08:08:45.776Z" agent="Mozilla/5.0 (Macintosh; Intel Mac OS X 10_15_7) AppleWebKit/537.36 (KHTML, like Gecko) Chrome/126.0.0.0 Safari/537.36 Edg/126.0.0.0" etag="DDZHgaUwijEWY-tSNGty" version="24.4.8" type="device">
  <diagram name="Page-1" id="-jJSK084csI1Zq-sNkjZ">
    <mxGraphModel dx="1082" dy="628" grid="1" gridSize="10" guides="1" tooltips="1" connect="1" arrows="1" fold="1" page="1" pageScale="1" pageWidth="827" pageHeight="1169" math="0" shadow="0">
      <root>
        <mxCell id="0" />
        <mxCell id="1" parent="0" />
        <mxCell id="2_Zp4gy-_wP581kFouy5-11" style="edgeStyle=orthogonalEdgeStyle;rounded=0;orthogonalLoop=1;jettySize=auto;html=1;entryX=0.5;entryY=0;entryDx=0;entryDy=0;" edge="1" parent="1" source="2_Zp4gy-_wP581kFouy5-6" target="2_Zp4gy-_wP581kFouy5-7">
          <mxGeometry relative="1" as="geometry" />
        </mxCell>
        <mxCell id="2_Zp4gy-_wP581kFouy5-6" value="Livecoinwatch&lt;div&gt;API&lt;/div&gt;" style="rounded=1;whiteSpace=wrap;html=1;" vertex="1" parent="1">
          <mxGeometry x="120" y="40" width="120" height="60" as="geometry" />
        </mxCell>
        <mxCell id="2_Zp4gy-_wP581kFouy5-22" style="edgeStyle=orthogonalEdgeStyle;rounded=0;orthogonalLoop=1;jettySize=auto;html=1;" edge="1" parent="1" source="2_Zp4gy-_wP581kFouy5-7" target="2_Zp4gy-_wP581kFouy5-20">
          <mxGeometry relative="1" as="geometry" />
        </mxCell>
        <mxCell id="2_Zp4gy-_wP581kFouy5-29" value="Save&amp;nbsp;&lt;div&gt;Data&lt;/div&gt;" style="edgeLabel;html=1;align=center;verticalAlign=middle;resizable=0;points=[];" vertex="1" connectable="0" parent="2_Zp4gy-_wP581kFouy5-22">
          <mxGeometry x="-0.2943" y="-1" relative="1" as="geometry">
            <mxPoint as="offset" />
          </mxGeometry>
        </mxCell>
        <mxCell id="2_Zp4gy-_wP581kFouy5-7" value="Data Ingestion" style="points=[[0,0],[0.25,0],[0.5,0],[0.75,0],[1,0],[1,0.25],[1,0.5],[1,0.75],[1,1],[0.75,1],[0.5,1],[0.25,1],[0,1],[0,0.75],[0,0.5],[0,0.25]];outlineConnect=0;gradientColor=none;html=1;whiteSpace=wrap;fontSize=12;fontStyle=0;container=1;pointerEvents=0;collapsible=0;recursiveResize=0;shape=mxgraph.aws4.group;grIcon=mxgraph.aws4.group_on_premise;strokeColor=#7D8998;fillColor=none;verticalAlign=top;align=left;spacingLeft=30;fontColor=#5A6C86;dashed=0;" vertex="1" parent="1">
          <mxGeometry x="110" y="220" width="140" height="150" as="geometry" />
        </mxCell>
        <mxCell id="2_Zp4gy-_wP581kFouy5-8" value="Data Ingestion&amp;nbsp;&lt;div&gt;Cron&lt;/div&gt;" style="html=1;verticalLabelPosition=bottom;align=center;labelBackgroundColor=#ffffff;verticalAlign=top;strokeWidth=2;strokeColor=#0080F0;shadow=0;dashed=0;shape=mxgraph.ios7.icons.alarm_clock;" vertex="1" parent="2_Zp4gy-_wP581kFouy5-7">
          <mxGeometry x="47.5" y="50" width="45" height="50" as="geometry" />
        </mxCell>
        <mxCell id="2_Zp4gy-_wP581kFouy5-15" value="Server contents" style="points=[[0,0],[0.25,0],[0.5,0],[0.75,0],[1,0],[1,0.25],[1,0.5],[1,0.75],[1,1],[0.75,1],[0.5,1],[0.25,1],[0,1],[0,0.75],[0,0.5],[0,0.25]];outlineConnect=0;gradientColor=none;html=1;whiteSpace=wrap;fontSize=12;fontStyle=0;container=1;pointerEvents=0;collapsible=0;recursiveResize=0;shape=mxgraph.aws4.group;grIcon=mxgraph.aws4.group_on_premise;strokeColor=#7D8998;fillColor=none;verticalAlign=top;align=left;spacingLeft=30;fontColor=#5A6C86;dashed=0;" vertex="1" parent="1">
          <mxGeometry x="44" y="180" width="696" height="250" as="geometry" />
        </mxCell>
        <mxCell id="2_Zp4gy-_wP581kFouy5-9" value="Socket Server" style="points=[[0,0],[0.25,0],[0.5,0],[0.75,0],[1,0],[1,0.25],[1,0.5],[1,0.75],[1,1],[0.75,1],[0.5,1],[0.25,1],[0,1],[0,0.75],[0,0.5],[0,0.25]];outlineConnect=0;gradientColor=none;html=1;whiteSpace=wrap;fontSize=12;fontStyle=0;container=1;pointerEvents=0;collapsible=0;recursiveResize=0;shape=mxgraph.aws4.group;grIcon=mxgraph.aws4.group_on_premise;strokeColor=#7D8998;fillColor=none;verticalAlign=top;align=left;spacingLeft=30;fontColor=#5A6C86;dashed=0;" vertex="1" parent="2_Zp4gy-_wP581kFouy5-15">
          <mxGeometry x="502" y="40" width="140" height="150" as="geometry" />
        </mxCell>
        <mxCell id="2_Zp4gy-_wP581kFouy5-13" value="" style="sketch=0;outlineConnect=0;fontColor=#232F3E;gradientColor=none;fillColor=#232F3D;strokeColor=none;dashed=0;verticalLabelPosition=bottom;verticalAlign=top;align=center;html=1;fontSize=12;fontStyle=0;aspect=fixed;pointerEvents=1;shape=mxgraph.aws4.traditional_server;" vertex="1" parent="2_Zp4gy-_wP581kFouy5-9">
          <mxGeometry x="48" y="36" width="45" height="78" as="geometry" />
        </mxCell>
        <mxCell id="2_Zp4gy-_wP581kFouy5-23" style="edgeStyle=orthogonalEdgeStyle;rounded=0;orthogonalLoop=1;jettySize=auto;html=1;entryX=0;entryY=0.5;entryDx=0;entryDy=0;" edge="1" parent="2_Zp4gy-_wP581kFouy5-15" source="2_Zp4gy-_wP581kFouy5-20" target="2_Zp4gy-_wP581kFouy5-9">
          <mxGeometry relative="1" as="geometry" />
        </mxCell>
        <mxCell id="2_Zp4gy-_wP581kFouy5-30" value="Fetch&lt;div&gt;Data&lt;/div&gt;" style="edgeLabel;html=1;align=center;verticalAlign=middle;resizable=0;points=[];" vertex="1" connectable="0" parent="2_Zp4gy-_wP581kFouy5-23">
          <mxGeometry x="-0.0347" y="1" relative="1" as="geometry">
            <mxPoint as="offset" />
          </mxGeometry>
        </mxCell>
        <mxCell id="2_Zp4gy-_wP581kFouy5-20" value="Database" style="points=[[0,0],[0.25,0],[0.5,0],[0.75,0],[1,0],[1,0.25],[1,0.5],[1,0.75],[1,1],[0.75,1],[0.5,1],[0.25,1],[0,1],[0,0.75],[0,0.5],[0,0.25]];outlineConnect=0;gradientColor=none;html=1;whiteSpace=wrap;fontSize=12;fontStyle=0;container=1;pointerEvents=0;collapsible=0;recursiveResize=0;shape=mxgraph.aws4.group;grIcon=mxgraph.aws4.group_on_premise;strokeColor=#7D8998;fillColor=none;verticalAlign=top;align=left;spacingLeft=30;fontColor=#5A6C86;dashed=0;" vertex="1" parent="2_Zp4gy-_wP581kFouy5-15">
          <mxGeometry x="278" y="40" width="140" height="150" as="geometry" />
        </mxCell>
        <mxCell id="2_Zp4gy-_wP581kFouy5-4" value="Mongo Database" style="html=1;verticalLabelPosition=bottom;align=center;labelBackgroundColor=#ffffff;verticalAlign=top;strokeWidth=2;strokeColor=#0080F0;shadow=0;dashed=0;shape=mxgraph.ios7.icons.data;" vertex="1" parent="2_Zp4gy-_wP581kFouy5-20">
          <mxGeometry x="45.25" y="45" width="49.49" height="60" as="geometry" />
        </mxCell>
        <mxCell id="2_Zp4gy-_wP581kFouy5-25" value="Client&amp;nbsp;&lt;span style=&quot;background-color: initial;&quot;&gt;Website&lt;/span&gt;" style="sketch=0;pointerEvents=1;shadow=0;dashed=0;html=1;strokeColor=none;fillColor=#505050;labelPosition=center;verticalLabelPosition=bottom;verticalAlign=top;outlineConnect=0;align=center;shape=mxgraph.office.devices.mac_client;" vertex="1" parent="1">
          <mxGeometry x="359" y="537" width="58" height="48" as="geometry" />
        </mxCell>
        <mxCell id="2_Zp4gy-_wP581kFouy5-27" style="edgeStyle=orthogonalEdgeStyle;rounded=0;orthogonalLoop=1;jettySize=auto;html=1;startArrow=block;startFill=1;" edge="1" parent="1" source="2_Zp4gy-_wP581kFouy5-9" target="2_Zp4gy-_wP581kFouy5-25">
          <mxGeometry relative="1" as="geometry">
            <Array as="points">
              <mxPoint x="616" y="561" />
            </Array>
          </mxGeometry>
        </mxCell>
        <mxCell id="2_Zp4gy-_wP581kFouy5-32" value="Publish/Subscribe" style="edgeLabel;html=1;align=center;verticalAlign=middle;resizable=0;points=[];" vertex="1" connectable="0" parent="2_Zp4gy-_wP581kFouy5-27">
          <mxGeometry x="0.3474" y="1" relative="1" as="geometry">
            <mxPoint as="offset" />
          </mxGeometry>
        </mxCell>
      </root>
    </mxGraphModel>
  </diagram>
</mxfile>
